HIERARCHY
ROOT root
{
	OFFSET	0	13.1	24.9
	CHANNELS 6  Xposition Yposition Zposition Xrotation Yrotation Zrotation
	JOINT spine_1
	{
		OFFSET	0	9.99999	0
		CHANNELS 3  Xrotation Yrotation Zrotation
		JOINT spine_2
		{
			OFFSET	0	112	-10
			CHANNELS 3  Xrotation Yrotation Zrotation
			JOINT spine_3
			{
				OFFSET	0	206.5	19.3
				CHANNELS 3  Xrotation Yrotation Zrotation
				JOINT spine_4
				{
					OFFSET	0	110.4	14.6
					CHANNELS 3  Xrotation Yrotation Zrotation
					JOINT neck_1
					{
						OFFSET	0	71.8	-50.3
						CHANNELS 3  Xrotation Yrotation Zrotation
						JOINT neck_2
						{
							OFFSET	0	86.2	-25.8
							CHANNELS 3  Xrotation Yrotation Zrotation
							JOINT head_ee
							{
								OFFSET	0	179.8	-8.7
								CHANNELS 3  Xrotation Yrotation Zrotation
								End Site
								{
									OFFSET	1	0	0
								}
							}
						}
					}
					JOINT left_clavicle
					{
						OFFSET	-43.2	22.4	-70.8
						CHANNELS 3  Xrotation Yrotation Zrotation
						JOINT left_shoulder
						{
							OFFSET	-93.9	-5.79999	48.7
							CHANNELS 3  Xrotation Yrotation Zrotation
							JOINT left_elbow
							{
								OFFSET	-291.4	-30.8	15.2
								CHANNELS 3  Xrotation Yrotation Zrotation
								JOINT left_lowarm_twist
								{
									OFFSET	-110.7	-3.89999	13.6
									CHANNELS 3  Xrotation Yrotation Zrotation
									JOINT left_hand
									{
										OFFSET	-110.7	-3.89999	13.6
										CHANNELS 3  Xrotation Yrotation Zrotation
										JOINT left_ee
										{
											OFFSET	-80.8	-5.10001	12.1
											CHANNELS 3  Xrotation Yrotation Zrotation
											End Site
											{
												OFFSET	1	0	0
											}
										}
									}
								}
							}
						}
					}
					JOINT right_clavicle
					{
						OFFSET	43.2	22.4	-70.8
						CHANNELS 3  Xrotation Yrotation Zrotation
						JOINT right_shoulder
						{
							OFFSET	93.9	-5.79999	48.7
							CHANNELS 3  Xrotation Yrotation Zrotation
							JOINT right_elbow
							{
								OFFSET	291.4	-30.8	15.2
								CHANNELS 3  Xrotation Yrotation Zrotation
								JOINT right_lowarm_twist
								{
									OFFSET	110.7	-3.89999	13.6
									CHANNELS 3  Xrotation Yrotation Zrotation
									JOINT right_hand
									{
										OFFSET	110.7	-3.89999	13.6
										CHANNELS 3  Xrotation Yrotation Zrotation
										JOINT right_ee
										{
											OFFSET	80.8	-5.10001	12.1
											CHANNELS 3  Xrotation Yrotation Zrotation
											End Site
											{
												OFFSET	1	0	0
											}
										}
									}
								}
							}
						}
					}
				}
			}
		}
	}
	JOINT left_hip
	{
		OFFSET	-82.8	-127.5	0.300001
		CHANNELS 3  Xrotation Yrotation Zrotation
		JOINT left_knee
		{
			OFFSET	-28.2	-396.7	2.2
			CHANNELS 3  Xrotation Yrotation Zrotation
			JOINT left_ankle
			{
				OFFSET	-11.7	-411.3	35.4
				CHANNELS 3  Xrotation Yrotation Zrotation
				JOINT left_toes
				{
					OFFSET	0	-60	-88.6
					CHANNELS 3  Xrotation Yrotation Zrotation
					JOINT left_foot_ee
					{
						OFFSET	-22.5	-16.5	-42.2
						CHANNELS 3  Xrotation Yrotation Zrotation
						End Site
						{
							OFFSET	1	0	0
						}
					}
				}
			}
		}
	}
	JOINT right_hip
	{
		OFFSET	82.8	-127.5	0.300001
		CHANNELS 3  Xrotation Yrotation Zrotation
		JOINT right_knee
		{
			OFFSET	28.2	-396.7	2.2
			CHANNELS 3  Xrotation Yrotation Zrotation
			JOINT right_ankle
			{
				OFFSET	11.7	-411.3	35.4
				CHANNELS 3  Xrotation Yrotation Zrotation
				JOINT right_toes
				{
					OFFSET	0	-60	-88.6
					CHANNELS 3  Xrotation Yrotation Zrotation
					JOINT right_foot_ee
					{
						OFFSET	22.5	-16.5	-42.2
						CHANNELS 3  Xrotation Yrotation Zrotation
						End Site
						{
							OFFSET	1	0	0
						}
					}
				}
			}
		}
	}
}
MOTION
Frames: 6
Frame Time: 0.02
3339.84 690.974 -582.802 -80.3393 -87.4784 -74.0727 2.65598 -0.530363 -3.10486 2.66128 -0.331817 -3.13228 2.67836 0.187222 -3.14423 2.6647 -0.311449 -3.13437 -15.7011 6.73192 4.39936 -15.7445 10.3399 6.45085 -0.0 0.0 -0.0 9.8038 7.00591 18.782 3.54289 -24.8289 68.381 2.7805 -54.0098 1.41724 -11.5521 -0.547171 1.36941 -0.921544 15.4796 0.629539 -0.0 0.0 -0.0 0.565805 -20.4873 -3.20877 -17.7721 24.6198 -68.0433 0.22902 6.47267 -0.01295 -61.7834 5.50533 -5.15323 2.24443 2.53706 -14.1478 0.0 0.0 0.0 -0.783126 14.2464 -11.4465 -6.43648 0.210994 0.964758 40.9863 12.2641 -4.98351 -36.5319 0.0 0.0 -0.0 0.0 -0.0 30.1029 -39.7029 4.00487 -0.23506 -0.00960739 -0.0347928 3.28431 30.9615 0.615229 -22.8362 0.0 0.0 0.0 0.0 0.0 
3354.36 690.734 -576.911 -80.5334 -87.77 -74.6415 2.63044 -0.480923 -2.92032 2.63514 -0.294204 -2.94498 2.64934 0.195074 -2.95319 2.63728 -0.273568 -2.94696 -15.2803 5.55383 0.988688 -15.3676 10.047 2.8065 -0.0 0.0 -0.0 10.0907 9.61769 19.0704 2.04462 -23.9504 68.5314 2.73763 -53.5858 1.38265 -11.2103 -0.527057 1.33058 -0.684548 16.0134 2.31705 -0.0 0.0 -0.0 0.987939 -20.6516 -3.83647 -17.4894 25.1209 -67.9936 0.234548 6.62754 -0.0135805 -61.8105 5.50873 -5.15397 2.33679 3.09542 -14.5588 0.0 0.0 0.0 -1.50158 14.4278 -11.5993 -8.21216 0.250001 1.23445 41.3955 11.5247 -5.01073 -35.6047 0.0 0.0 -0.0 0.0 -0.0 30.3303 -39.3508 4.72521 -2.8945 -0.108308 -0.430962 -1.01488 30.4489 -0.191305 -21.7627 0.0 0.0 0.0 0.0 0.0 
3374.01 683.59 -569.822 -72.5854 -88.3408 -66.9055 2.51475 -0.526451 -2.80949 2.51907 -0.346683 -2.83727 2.53558 0.131159 -2.85535 2.52434 -0.32125 -2.84026 -15.3292 4.25903 -1.38845 -15.3966 8.96761 0.129738 -0.0 0.0 -0.0 9.55827 10.2905 18.006 0.550246 -24.0972 68.8664 2.74979 -53.7069 1.39244 -9.41638 -0.42532 1.12487 -0.173818 17.1395 5.91016 -0.0 0.0 -0.0 1.29025 -21.0529 -4.30507 -17.6793 25.4444 -67.0916 0.235535 6.65517 -0.0136947 -61.8309 5.51129 -5.15452 2.45235 3.46828 -15.2088 0.0 0.0 0.0 -2.81297 15.0448 -11.9363 -10.3579 0.285957 1.56173 41.1899 10.7064 -4.98533 -34.4536 0.0 0.0 -0.0 0.0 -0.0 30.2051 -39.1521 4.86374 -4.49035 -0.158661 -0.670693 -3.94556 29.6092 -0.740765 -22.7693 0.0 0.0 0.0 0.0 0.0 
3387.0 680.172 -561.277 -68.987 -88.4032 -63.515 2.53387 -0.555541 -2.70208 2.53785 -0.382541 -2.73192 2.55548 0.0772282 -2.75747 2.54505 -0.359067 -2.7351 -16.5174 3.07935 -2.9526 -16.5533 7.58558 -1.67063 -0.0 0.0 -0.0 9.00246 10.7968 16.9375 -0.403074 -24.3831 69.3484 2.75862 -53.7944 1.39956 -8.0967 -0.354629 0.971597 0.333171 17.7039 9.23775 -0.0 0.0 -0.0 1.94475 -21.2869 -5.26156 -17.3238 25.834 -66.9625 0.243943 6.89049 -0.0146862 -62.2077 5.55852 -5.16459 2.68273 3.66952 -16.738 0.0 0.0 0.0 -2.34991 15.2886 -12.4114 -11.266 0.297476 1.70058 41.1372 9.66877 -4.97243 -33.0791 0.0 0.0 -0.0 0.0 -0.0 30.2092 -39.1394 4.73701 -5.83124 -0.19579 -0.873122 -6.33375 28.9732 -1.1852 -23.4729 0.0 0.0 0.0 0.0 0.0 
3401.46 676.834 -554.595 -68.4347 -88.5134 -63.354 2.42541 -0.515887 -2.50944 2.42884 -0.355212 -2.53715 2.44416 0.0767678 -2.56073 2.43516 -0.328482 -2.54075 -15.6368 2.47581 -3.36379 -15.6474 6.70354 -2.32305 -0.0 0.0 -0.0 8.56387 11.2918 16.101 -2.04027 -24.7726 69.6978 2.67848 -52.9865 1.33523 -7.16631 -0.306927 0.862589 0.559092 18.7095 10.9923 -0.0 0.0 -0.0 2.21883 -20.9427 -5.63884 -16.6493 26.2454 -66.9453 0.254933 7.19774 -0.016034 -62.1795 5.55498 -5.16385 2.694 3.90759 -16.7175 0.0 0.0 0.0 -1.99296 15.479 -12.6997 -12.1295 0.306387 1.83278 40.7274 9.5329 -4.93635 -32.939 0.0 0.0 -0.0 0.0 -0.0 30.1602 -38.7339 5.28132 -6.57098 -0.214242 -0.985144 -7.76708 28.6007 -1.45024 -23.9672 0.0 0.0 0.0 0.0 0.0 
3412.61 678.045 -548.073 -77.3494 -88.2605 -72.6033 2.28386 -0.408314 -2.35149 2.28689 -0.257898 -2.37268 2.29729 0.151201 -2.38186 2.28945 -0.226758 -2.37586 -15.0036 2.01955 -5.57471 -14.9608 7.17497 -4.60434 -0.0 0.0 -0.0 8.42371 11.0467 15.8692 -3.92102 -24.448 69.5867 2.47868 -50.8319 1.17795 -5.9809 -0.24873 0.722619 1.01178 18.4335 13.6961 -0.0 0.0 -0.0 2.50518 -20.3405 -6.02889 -15.7901 26.5679 -66.8836 0.255602 7.21644 -0.016118 -62.0185 5.53479 -5.15957 2.67588 3.97203 -16.5631 0.0 0.0 0.0 -1.44036 15.3132 -12.9281 -12.8052 0.311971 1.9363 40.4142 9.49115 -4.909 -32.2571 0.0 0.0 -0.0 0.0 -0.0 29.2063 -39.0432 4.90772 -4.53876 -0.160084 -0.677987 -10.3299 29.0781 -1.94948 -24.3139 0.0 0.0 0.0 0.0 0.0 
